#!OML:ASF F:\VICON\USERDATA\INSTALL\rory3\rory3.ASF
:FULLY-SPECIFIED
:DEGREES
285
root 4.06901 17.1666 0.367024 11.8655 3.91767 -2.4403
lowerback -2.13777 -1.53399 -1.15463
upperback -2.60385 -2.02125 1.46294
thorax -1.37911 -0.979408 2.12758
lowerneck -8.76163 11.2842 7.43398
upperneck 43.3835 16.0883 -0.268653
head 18.4698 7.71593 1.46272
rclavicle 2.85629e-014 9.93923e-015
rhumerus -3.97841 5.65607 -32.4519
rradius 130.959
rwrist -53.6457
rhand -2.28396 -43.3022
rfingers 7.12502
rthumb 23.401 -71.8994
lclavicle 2.85629e-014 9.93923e-015
lhumerus 37.4763 3.41911 18.6361
lradius 78.4362
lwrist 71.5508
lhand -21.876 -14.5002
lfingers 7.12502
lthumb 4.52851 15.4314
rfemur -47.5384 4.76752 16.9308
rtibia 67.735
rfoot 3.64588 -3.24052
rtoes -20.6494
lfemur -26.9224 -0.88467 -26.0439
ltibia 35.8714
lfoot -18.8229 6.67844
ltoes 10.6473
286
root 4.06205 17.1577 0.352277 11.8381 3.8627 -2.52496
lowerback -1.93946 -1.51331 -1.03979
upperback -2.59503 -1.99598 1.44163
thorax -1.48673 -0.967891 2.04736
lowerneck -9.26185 11.3062 7.19397
upperneck 43.9793 16.0409 0.159511
head 18.8748 7.67732 1.75944
rclavicle 1.80024e-014 -5.46658e-015
rhumerus -4.21481 5.88725 -33.1238
rradius 130.879
rwrist -53.5493
rhand -2.15493 -43.1638
rfingers 7.12502
rthumb 23.5248 -71.7452
lclavicle 1.80024e-014 -5.46658e-015
lhumerus 37.3865 3.05473 18.9039
lradius 78.3238
lwrist 71.6421
lhand -21.9142 -14.2167
lfingers 7.12502
lthumb 4.4916 15.7157
rfemur -47.7185 4.93189 17.0638
rtibia 68.0212
rfoot 3.79243 -3.48126
rtoes -20.657
lfemur -27.0514 -0.991552 -25.9164
ltibia 36.0058
lfoot -18.7872 6.78967
ltoes 10.6243
287
root 4.05474 17.1564 0.344243 11.7664 3.77306 -2.54237
lowerback -1.69117 -1.49351 -1.02085
upperback -2.62635 -1.97102 1.41171
thorax -1.66077 -0.9542 2.01417
lowerneck -9.49618 11.3501 7.09527
upperneck 44.3397 16.0636 0.39877
head 19.1193 7.68046 1.9311
rclavicle -2.48729e-014 -7.95139e-016
rhumerus -4.43766 6.34743 -33.8335
rradius 130.496
rwrist -53.3163
rhand -2.05027 -42.1496
rfingers 7.12502
rthumb 23.6252 -70.7181
lclavicle -2.48729e-014 -7.95139e-016
lhumerus 37.096 2.54083 19.0651
lradius 78.2665
lwrist 71.8616
lhand -22.2264 -14.1905
lfingers 7.12502
lthumb 4.19016 15.748
rfemur -47.8585 5.14861 17.1168
rtibia 68.24
rfoot 4.03497 -3.58399
rtoes -19.6559
lfemur -27.0517 -1.03789 -25.8732
ltibia 36.075
lfoot -18.7835 6.92237
ltoes 10.3115
288
root 4.04935 17.1597 0.348366 11.6338 3.69653 -2.48043
lowerback -1.53265 -1.46911 -1.09771
upperback -2.62891 -1.93933 1.38403
thorax -1.75209 -0.936336 2.03364
lowerneck -9.4269 11.3296 7.03619
upperneck 44.4804 16.0381 0.468329
head 19.1712 7.66836 1.96953
rclavicle 8.43592e-015 -1.31198e-014
rhumerus -4.62069 6.50841 -34.4027
rradius 130.454
rwrist -53.2657
rhand -1.31016 -42.6929
rfingers 7.12502
rthumb 24.3349 -71.1681
lclavicle 8.43592e-015 -1.31198e-014
lhumerus 36.8084 2.00182 19.3377
lradius 78.2655
lwrist 71.9188
lhand -22.4384 -13.9339
lfingers 7.12502
lthumb 3.98541 16.0085
rfemur -47.8472 5.30472 17.0926
rtibia 68.3909
rfoot 4.21564 -3.46905
rtoes -19.599
lfemur -26.8216 -1.04867 -25.9374
ltibia 36.0331
lfoot -18.79 7.00393
ltoes 10.2478
289
root 4.04072 17.1611 0.352012 11.5664 3.63154 -2.44989
lowerback -1.4844 -1.46025 -1.19734
upperback -2.61745 -1.92749 1.39335
thorax -1.76445 -0.928465 2.10025
lowerneck -9.17719 11.2946 7.16528
upperneck 44.5325 16.0295 0.326948
head 19.1791 7.6729 1.86707
rclavicle -4.99446e-015 -1.68967e-014
rhumerus -4.49621 6.83188 -34.9983
rradius 129.738
rwrist -52.8952
rhand -0.00547395 -42.3731
rfingers 7.12502
rthumb 25.5851 -70.6746
lclavicle -4.99446e-015 -1.68967e-014
lhumerus 36.4981 1.58465 19.7157
lradius 78.3588
lwrist 71.8183
lhand -22.6088 -13.5349
lfingers 7.12502
lthumb 3.8209 16.4106
rfemur -47.958 5.48942 17.1014
rtibia 68.5042
rfoot 4.50598 -3.25338
rtoes -19.6936
lfemur -26.661 -1.09287 -25.9468
ltibia 35.9205
lfoot -18.6895 7.11733
ltoes 10.4724
290
root 4.03342 17.1687 0.353217 11.5658 3.6073 -2.41324
lowerback -1.61541 -1.46419 -1.25466
upperback -2.53554 -1.93225 1.36901
thorax -1.60554 -0.93227 2.10199
lowerneck -9.32758 11.3989 7.26188
upperneck 44.7731 16.2335 0.24943
head 19.4175 7.74078 1.89007
rclavicle 1.48467e-014 -1.39149e-015
rhumerus -4.09428 7.01851 -35.6741
rradius 129.046
rwrist -52.6459
rhand 0.63155 -42.2465
rfingers 7.12502
rthumb 26.1951 -70.459
lclavicle 1.48467e-014 -1.39149e-015
lhumerus 36.309 1.23128 20.1268
lradius 78.3043
lwrist 71.7818
lhand -22.7132 -14.0057
lfingers 7.12502
lthumb 3.7201 15.9416
rfemur -48.1033 5.62612 17.073
rtibia 68.561
rfoot 4.76884 -2.98634
rtoes -18.9065
lfemur -26.6278 -1.18906 -25.9657
ltibia 35.8695
lfoot -18.6067 7.31535
ltoes 10.5201
291
root 4.02835 17.1742 0.350492 11.5918 3.5306 -2.38305
lowerback -1.80322 -1.41461 -1.25109
upperback -2.41122 -1.86571 1.3041
thorax -1.37772 -0.902754 2.02615
lowerneck -9.29643 11.4353 7.55418
upperneck 44.7629 16.3548 -0.0550379
head 19.5046 7.79262 1.73165
rclavicle -2.10588e-014 1.78906e-015
rhumerus -4.07154 7.17542 -36.2751
rradius 128.887
rwrist -52.956
rhand -0.359843 -41.9953
rfingers 7.12502
rthumb 25.2457 -70.3451
lclavicle -2.10588e-014 1.78906e-015
lhumerus 36.4157 0.849181 20.6359
lradius 78.0813
lwrist 71.8588
lhand -22.8974 -15.0856
lfingers 7.12502
lthumb 3.54221 14.8647
rfemur -48.2161 5.78994 17.0336
rtibia 68.5813
rfoot 4.9604 -2.71376
rtoes -18.4145
lfemur -26.6915 -1.36868 -25.9805
ltibia 35.9209
lfoot -18.6272 7.54654
ltoes 11.001
